<svg width="20" height="22" viewBox="0 0 20 22" fill="none" xmlns="http://www.w3.org/2000/svg">
<path d="M14.5 11C15.9587 11 17.3576 11.5795 18.3891 12.6109C19.4205 13.6424 20 15.0413 20 16.5C20 17.9587 19.4205 19.3576 18.3891 20.3891C17.3576 21.4205 15.9587 22 14.5 22C13.0413 22 11.6424 21.4205 10.6109 20.3891C9.57946 19.3576 9 17.9587 9 16.5C9 15.0413 9.57946 13.6424 10.6109 12.6109C11.6424 11.5795 13.0413 11 14.5 11V11ZM10 0.75C10.8301 0.749946 11.6288 1.06755 12.2322 1.63767C12.8356 2.20779 13.198 2.98719 13.245 3.816L13.25 4H18.5C18.69 4.00006 18.8729 4.07224 19.0118 4.20197C19.1506 4.3317 19.2351 4.5093 19.248 4.69888C19.261 4.88846 19.2015 5.07589 19.0816 5.2233C18.9617 5.37071 18.7902 5.4671 18.602 5.493L18.5 5.5H17.704L17.204 10.587C16.744 10.377 16.254 10.217 15.744 10.119L16.197 5.5H3.802L5.069 18.372C5.09706 18.6592 5.22362 18.9279 5.42722 19.1324C5.63082 19.3369 5.89892 19.4647 6.186 19.494L6.313 19.5H8.733C9.019 20.051 9.383 20.556 9.809 21H6.313C5.66046 21 5.02919 20.7679 4.53201 20.3453C4.03482 19.9227 3.70412 19.337 3.599 18.693L3.576 18.519L2.295 5.5H1.5C1.31876 5.49999 1.14366 5.43436 1.00707 5.31523C0.870481 5.19611 0.781648 5.03155 0.757 4.852L0.75 4.75C0.750008 4.56876 0.815643 4.39366 0.934767 4.25707C1.05389 4.12048 1.21845 4.03165 1.398 4.007L1.5 4H6.75C6.75 3.13805 7.09241 2.3114 7.7019 1.7019C8.3114 1.09241 9.13805 0.75 10 0.75V0.75ZM11.716 13.589L11.646 13.646L11.589 13.716C11.5314 13.7995 11.5005 13.8985 11.5005 14C11.5005 14.1015 11.5314 14.2005 11.589 14.284L11.646 14.354L13.793 16.5L11.646 18.646L11.589 18.716C11.5314 18.7995 11.5005 18.8985 11.5005 19C11.5005 19.1015 11.5314 19.2005 11.589 19.284L11.646 19.354L11.716 19.411C11.7995 19.4686 11.8985 19.4995 12 19.4995C12.1015 19.4995 12.2005 19.4686 12.284 19.411L12.354 19.354L14.5 17.207L16.646 19.354L16.716 19.411C16.7995 19.4686 16.8985 19.4995 17 19.4995C17.1015 19.4995 17.2005 19.4686 17.284 19.411L17.354 19.354L17.411 19.284C17.4686 19.2005 17.4995 19.1015 17.4995 19C17.4995 18.8985 17.4686 18.7995 17.411 18.716L17.354 18.646L15.207 16.5L17.354 14.354L17.411 14.284C17.4686 14.2005 17.4995 14.1015 17.4995 14C17.4995 13.8985 17.4686 13.7995 17.411 13.716L17.354 13.646L17.284 13.589C17.2005 13.5314 17.1015 13.5005 17 13.5005C16.8985 13.5005 16.7995 13.5314 16.716 13.589L16.646 13.646L14.5 15.793L12.354 13.646L12.284 13.589C12.2128 13.5397 12.1301 13.5097 12.0438 13.502C11.9576 13.4943 11.8708 13.5091 11.792 13.545L11.716 13.589V13.589ZM10 2.25C9.56081 2.25002 9.13768 2.41517 8.81461 2.71268C8.49154 3.01019 8.29214 3.4183 8.256 3.856L8.25 4H11.75C11.75 3.53587 11.5656 3.09075 11.2374 2.76256C10.9092 2.43437 10.4641 2.25 10 2.25Z" fill="black"/>
</svg>
