<svg width="20" height="19" viewBox="0 0 20 19" fill="none" xmlns="http://www.w3.org/2000/svg">
<path fill-rule="evenodd" clip-rule="evenodd" d="M19.7243 10.0519L17.611 7.75462C17.471 7.6168 17.2824 7.53955 17.086 7.53955C16.8896 7.53955 16.701 7.6168 16.5611 7.75462L14.4451 10.0519C14.376 10.1202 14.3212 10.2016 14.2838 10.2912C14.2464 10.3808 14.2271 10.477 14.2271 10.5741C14.2271 10.6713 14.2464 10.7675 14.2838 10.8571C14.3212 10.9467 14.376 11.0281 14.4451 11.0964H16.1958C15.8683 12.3267 15.2218 13.4487 14.3217 14.3491C13.4216 15.2495 12.2997 15.8962 11.0695 16.224C9.63182 16.6001 8.11346 16.527 6.71859 16.0145C5.32372 15.5019 4.11922 14.5746 3.26707 13.3572L1.79102 14.3732C2.8543 15.8923 4.35731 17.0493 6.09787 17.6886C7.83843 18.3279 9.73302 18.4188 11.5268 17.949C13.14 17.5213 14.6029 16.6542 15.7526 15.4444C16.9022 14.2345 17.6936 12.7293 18.0385 11.0964H19.7229C19.7919 11.0281 19.8466 10.9468 19.8841 10.8572C19.9215 10.7676 19.9408 10.6715 19.941 10.5744C19.9411 10.4773 19.922 10.3812 19.8848 10.2915C19.8476 10.2018 19.793 10.1204 19.7243 10.0519V10.0519Z" fill="black"/>
<path fill-rule="evenodd" clip-rule="evenodd" d="M4.40757 8.8519C4.47662 8.78358 4.53144 8.70225 4.56885 8.61261C4.60626 8.52297 4.62552 8.4268 4.62552 8.32966C4.62552 8.23253 4.60626 8.13636 4.56885 8.04672C4.53144 7.95708 4.47662 7.87575 4.40757 7.80743H2.43634C2.7717 6.59265 3.41903 5.48676 4.31405 4.59957C5.20906 3.71239 6.32061 3.0748 7.53828 2.75013C8.97601 2.37364 10.4946 2.44686 11.8894 2.95994C13.2842 3.47303 14.4883 4.40131 15.3393 5.61972L16.8167 4.60231C15.7532 3.08239 14.2496 1.92467 12.5083 1.2849C10.767 0.645131 8.87156 0.554004 7.07693 1.02378C5.47613 1.44956 4.02341 2.30774 2.87793 3.50429C1.73245 4.70084 0.93841 6.18959 0.58281 7.80743H-1.38166C-1.45071 7.87575 -1.50553 7.95708 -1.54294 8.04672C-1.58035 8.13636 -1.59961 8.23253 -1.59961 8.32966C-1.59961 8.4268 -1.58035 8.52297 -1.54294 8.61261C-1.50553 8.70225 -1.45071 8.78358 -1.38166 8.8519L0.834457 11.0667C0.974421 11.2045 1.16297 11.2817 1.3594 11.2817C1.55583 11.2817 1.74438 11.2045 1.88434 11.0667L4.40757 8.8519Z" fill="black"/>
</svg>
