<svg width="16" height="18" viewBox="0 0 16 18" fill="none" xmlns="http://www.w3.org/2000/svg">
<path d="M13 12.442C12.367 12.442 11.796 12.688 11.363 13.084L5.425 9.62095C5.471 9.43295 5.5 9.23695 5.5 9.03695C5.5 8.83695 5.471 8.64195 5.425 8.45395L11.3 5.02495C11.76 5.45834 12.368 5.69977 13 5.69995C14.379 5.69995 15.5 4.57895 15.5 3.19995C15.5 1.82095 14.379 0.699951 13 0.699951C11.621 0.699951 10.5 1.82095 10.5 3.19995C10.5 3.39995 10.529 3.59595 10.575 3.78295L4.7 7.21195C4.23976 6.779 3.63188 6.53763 3 6.53695C1.621 6.53695 0.5 7.65795 0.5 9.03695C0.5 10.416 1.621 11.537 3 11.537C3.63197 11.5368 4.24004 11.2953 4.7 10.862L10.638 14.325C10.5943 14.5037 10.5718 14.6869 10.571 14.871C10.5712 15.3511 10.7137 15.8204 10.9806 16.2195C11.2475 16.6186 11.6267 16.9297 12.0703 17.1133C12.5139 17.297 13.002 17.345 13.4729 17.2512C13.9438 17.1575 14.3764 16.9263 14.7159 16.5868C15.0554 16.2473 15.2866 15.8148 15.3803 15.3439C15.474 14.873 15.426 14.3849 15.2424 13.9413C15.0587 13.4976 14.7477 13.1184 14.3485 12.8516C13.9494 12.5847 13.4801 12.4421 13 12.442V12.442Z" fill="black"/>
</svg>
